<svg width="60" height="60" viewBox="0 0 60 60" fill="none" xmlns="http://www.w3.org/2000/svg">
<path d="M56.2502 53.3333H53.3335V9.58325C53.3335 8.8097 53.0262 8.06784 52.4792 7.52086C51.9322 6.97388 51.1904 6.66659 50.4168 6.66659C49.6433 6.66659 48.9014 6.97388 48.3544 7.52086C47.8075 8.06784 47.5002 8.8097 47.5002 9.58325V53.3333H41.6668V21.2499C41.6668 20.4764 41.3595 19.7345 40.8126 19.1875C40.2656 18.6405 39.5237 18.3333 38.7502 18.3333C37.9766 18.3333 37.2348 18.6405 36.6878 19.1875C36.1408 19.7345 35.8335 20.4764 35.8335 21.2499V53.3333H30.0002V32.9166C30.0002 32.143 29.6929 31.4012 29.1459 30.8542C28.5989 30.3072 27.857 29.9999 27.0835 29.9999C26.3099 29.9999 25.5681 30.3072 25.0211 30.8542C24.4741 31.4012 24.1668 32.143 24.1668 32.9166V53.3333H18.3335V44.5833C18.3335 43.8097 18.0262 43.0678 17.4792 42.5209C16.9322 41.9739 16.1904 41.6666 15.4168 41.6666C14.6433 41.6666 13.9014 41.9739 13.3544 42.5209C12.8075 43.0678 12.5002 43.8097 12.5002 44.5833V53.3333H6.66683V3.74992C6.66683 2.97637 6.35954 2.2345 5.81256 1.68752C5.26558 1.14054 4.52371 0.833252 3.75016 0.833252C2.97661 0.833252 2.23475 1.14054 1.68777 1.68752C1.14079 2.2345 0.833496 2.97637 0.833496 3.74992V56.2499C0.833496 57.0235 1.14079 57.7653 1.68777 58.3123C2.23475 58.8593 2.97661 59.1666 3.75016 59.1666H56.2502C57.0237 59.1666 57.7656 58.8593 58.3126 58.3123C58.8595 57.7653 59.1668 57.0235 59.1668 56.2499C59.1668 55.4764 58.8595 54.7345 58.3126 54.1875C57.7656 53.6405 57.0237 53.3333 56.2502 53.3333Z" fill="#F8F8F8"/>
</svg>
