<svg width="60" height="36" viewBox="0 0 60 36" fill="none" xmlns="http://www.w3.org/2000/svg">
<path d="M58.9333 2.30833C58.6374 1.59565 58.071 1.0293 57.3583 0.733333C57.0077 0.58388 56.6311 0.504608 56.25 0.5H41.6667C40.8931 0.5 40.1512 0.807291 39.6043 1.35427C39.0573 1.90125 38.75 2.64312 38.75 3.41667C38.75 4.19022 39.0573 4.93208 39.6043 5.47906C40.1512 6.02604 40.8931 6.33333 41.6667 6.33333H49.2208L32.9167 22.6375L23.3208 13.0125C23.0497 12.7391 22.7271 12.5221 22.3717 12.3741C22.0162 12.226 21.635 12.1498 21.25 12.1498C20.865 12.1498 20.4837 12.226 20.1283 12.3741C19.7729 12.5221 19.4503 12.7391 19.1792 13.0125L1.67915 30.5125C1.40578 30.7836 1.18879 31.1062 1.04072 31.4617C0.892643 31.8171 0.816406 32.1983 0.816406 32.5833C0.816406 32.9684 0.892643 33.3496 1.04072 33.705C1.18879 34.0604 1.40578 34.383 1.67915 34.6542C1.95029 34.9275 2.27288 35.1445 2.6283 35.2926C2.98373 35.4407 3.36495 35.5169 3.74998 35.5169C4.13502 35.5169 4.51624 35.4407 4.87167 35.2926C5.22709 35.1445 5.54968 34.9275 5.82082 34.6542L21.25 19.1958L30.8458 28.8208C31.117 29.0942 31.4395 29.3112 31.795 29.4593C32.1504 29.6073 32.5316 29.6836 32.9167 29.6836C33.3017 29.6836 33.6829 29.6073 34.0383 29.4593C34.3938 29.3112 34.7163 29.0942 34.9875 28.8208L53.3333 10.4458V18C53.3333 18.7736 53.6406 19.5154 54.1876 20.0624C54.7346 20.6094 55.4764 20.9167 56.25 20.9167C57.0235 20.9167 57.7654 20.6094 58.3124 20.0624C58.8594 19.5154 59.1667 18.7736 59.1667 18V3.41667C59.162 3.03552 59.0828 2.65898 58.9333 2.30833V2.30833Z" fill="#F8F8F8"/>
</svg>
