<svg width="56" height="42" viewBox="0 0 56 42" fill="none" xmlns="http://www.w3.org/2000/svg">
<path d="M17.5 17.5C17.5 15.6435 18.2375 13.863 19.5503 12.5503C20.863 11.2375 22.6435 10.5 24.5 10.5C26.3565 10.5 28.137 11.2375 29.4497 12.5503C30.7625 13.863 31.5 15.6435 31.5 17.5C31.5 19.3565 30.7625 21.137 29.4497 22.4497C28.137 23.7625 26.3565 24.5 24.5 24.5C22.6435 24.5 20.863 23.7625 19.5503 22.4497C18.2375 21.137 17.5 19.3565 17.5 17.5ZM24.5 14C23.5717 14 22.6815 14.3687 22.0251 15.0251C21.3687 15.6815 21 16.5717 21 17.5C21 18.4283 21.3687 19.3185 22.0251 19.9749C22.6815 20.6313 23.5717 21 24.5 21C25.4283 21 26.3185 20.6313 26.9749 19.9749C27.6313 19.3185 28 18.4283 28 17.5C28 16.5717 27.6313 15.6815 26.9749 15.0251C26.3185 14.3687 25.4283 14 24.5 14ZM5.25 0C3.85761 0 2.52226 0.553123 1.53769 1.53769C0.553124 2.52225 0 3.85761 0 5.25V29.75C0 31.1424 0.553124 32.4777 1.53769 33.4623C2.52226 34.4469 3.85761 35 5.25 35H43.75C45.1424 35 46.4777 34.4469 47.4623 33.4623C48.4469 32.4777 49 31.1424 49 29.75V5.25C49 3.85761 48.4469 2.52225 47.4623 1.53769C46.4777 0.553123 45.1424 0 43.75 0H5.25ZM3.5 5.25C3.5 4.78587 3.68437 4.34075 4.01256 4.01256C4.34075 3.68437 4.78587 3.5 5.25 3.5H10.5V7C10.5 7.92826 10.1313 8.8185 9.47487 9.47487C8.8185 10.1313 7.92826 10.5 7 10.5H3.5V5.25ZM3.5 14H7C8.85652 14 10.637 13.2625 11.9497 11.9497C13.2625 10.637 14 8.85652 14 7V3.5H35V7C35 8.85652 35.7375 10.637 37.0503 11.9497C38.363 13.2625 40.1435 14 42 14H45.5V21H42C40.1435 21 38.363 21.7375 37.0503 23.0503C35.7375 24.363 35 26.1435 35 28V31.5H14V28C14 26.1435 13.2625 24.363 11.9497 23.0503C10.637 21.7375 8.85652 21 7 21H3.5V14ZM38.5 3.5H43.75C44.2141 3.5 44.6592 3.68437 44.9874 4.01256C45.3156 4.34075 45.5 4.78587 45.5 5.25V10.5H42C41.0717 10.5 40.1815 10.1313 39.5251 9.47487C38.8687 8.8185 38.5 7.92826 38.5 7V3.5ZM45.5 24.5V29.75C45.5 30.2141 45.3156 30.6592 44.9874 30.9874C44.6592 31.3156 44.2141 31.5 43.75 31.5H38.5V28C38.5 27.0717 38.8687 26.1815 39.5251 25.5251C40.1815 24.8687 41.0717 24.5 42 24.5H45.5ZM10.5 31.5H5.25C4.78587 31.5 4.34075 31.3156 4.01256 30.9874C3.68437 30.6592 3.5 30.2141 3.5 29.75V24.5H7C7.92826 24.5 8.8185 24.8687 9.47487 25.5251C10.1313 26.1815 10.5 27.0717 10.5 28V31.5ZM52.5 29.75C52.5 32.0706 51.5781 34.2962 49.9372 35.9372C48.2962 37.5781 46.0706 38.5 43.75 38.5H7.2975C7.65955 39.524 8.33029 40.4105 9.21728 41.0374C10.1043 41.6643 11.1639 42.0006 12.25 42H43.75C46.9989 42 50.1147 40.7094 52.4121 38.4121C54.7094 36.1147 56 32.9989 56 29.75V12.25C56.0006 11.1639 55.6643 10.1043 55.0374 9.21728C54.4105 8.33029 53.524 7.65955 52.5 7.2975V29.75Z" fill="#F8F8F8"/>
</svg>
