<svg width="36" height="36" viewBox="0 0 36 36" fill="none" xmlns="http://www.w3.org/2000/svg">
<path d="M0.5 33H35.5V35.5H0.5V33ZM31.75 11.75C32.0815 11.75 32.3995 11.6183 32.6339 11.3838C32.8683 11.1494 33 10.8315 33 10.5V6.74996C32.9999 6.49306 32.9206 6.24244 32.773 6.0322C32.6254 5.82196 32.4166 5.6623 32.175 5.57496L18.425 0.574956C18.1504 0.475666 17.8496 0.475666 17.575 0.574956L3.825 5.57496C3.58341 5.6623 3.3746 5.82196 3.22698 6.0322C3.07937 6.24244 3.00011 6.49306 3 6.74996V10.5C3 10.8315 3.1317 11.1494 3.36612 11.3838C3.60054 11.6183 3.91848 11.75 4.25 11.75H5.5V28H3V30.5H33V28H30.5V11.75H31.75ZM5.5 7.62496L18 3.07496L30.5 7.62496V9.24996H5.5V7.62496ZM20.5 28H15.5V11.75H20.5V28ZM8 11.75H13V28H8V11.75ZM28 28H23V11.75H28V28Z" fill="#3A49F9"/>
</svg>
